<svg width="1440" height="850" viewBox="0 0 1440 850" fill="none" xmlns="http://www.w3.org/2000/svg">
<g filter="url(#filter0_f)">
<rect width="1440" height="850" fill="#F4F5F7"/>
</g>
<path d="M1044 305L1439.5 515L0 846.5V465.5L1044 305Z" fill="#CACFD6"/>
<path d="M1044 305L1439.5 515L0 846.5V465.5L1044 305Z" fill="#CACFD6"/>
<path d="M1044 305L1439.5 515L0 846.5V465.5L1044 305Z" fill="#CACFD6"/>
<path d="M1044 305L1439.5 515L0 846.5V465.5L1044 305Z" fill="#CACFD6"/>
<path d="M1441.5 513.5V848H-2L1441.5 513.5Z" fill="#9FD8CB"/>
<path d="M1441.5 513.5V848H-2L1441.5 513.5Z" fill="#9FD8CB"/>
<path d="M1441.5 513.5V848H-2L1441.5 513.5Z" fill="#9FD8CB"/>
<path d="M1441.5 513.5V848H-2L1441.5 513.5Z" fill="#9FD8CB"/>
<path d="M1439.5 63V515L582.5 63H1439.5Z" fill="#D6E5E3"/>
<path d="M1439.5 63V515L582.5 63H1439.5Z" fill="#D6E5E3"/>
<defs>
<filter id="filter0_f" x="-15" y="-15" width="1470" height="880" filterUnits="userSpaceOnUse" color-interpolation-filters="sRGB">
<feFlood flood-opacity="0" result="BackgroundImageFix"/>
<feBlend mode="normal" in="SourceGraphic" in2="BackgroundImageFix" result="shape"/>
<feGaussianBlur stdDeviation="7.5" result="effect1_foregroundBlur"/>
</filter>
</defs>
</svg>
